<svg width="36" height="36" viewBox="0 0 36 36" fill="none" xmlns="http://www.w3.org/2000/svg">
<path d="M29.8125 15.75C29.8125 24.1875 18 32.0625 18 32.0625C18 32.0625 6.1875 24.1875 6.1875 15.75C6.1875 12.6171 7.43203 9.61257 9.6473 7.3973C11.8626 5.18203 14.8671 3.9375 18 3.9375C21.1329 3.9375 24.1374 5.18203 26.3527 7.3973C28.568 9.61257 29.8125 12.6171 29.8125 15.75V15.75Z" stroke="white" stroke-width="1.5" stroke-linecap="round" stroke-linejoin="round"/>
<path d="M18 18.5625C19.5533 18.5625 20.8125 17.3033 20.8125 15.75C20.8125 14.1967 19.5533 12.9375 18 12.9375C16.4467 12.9375 15.1875 14.1967 15.1875 15.75C15.1875 17.3033 16.4467 18.5625 18 18.5625Z" fill="white" stroke="white" stroke-width="1.5" stroke-linecap="round" stroke-linejoin="round"/>
</svg>
